<svg id="ecbaIJKiwmx1" xmlns="http://www.w3.org/2000/svg" xmlns:xlink="http://www.w3.org/1999/xlink" viewBox="0 0 596 500" shape-rendering="geometricPrecision" text-rendering="geometricPrecision" project-id="3188779608bf4b989da76c8a075d65db" export-id="a89c128f08a443c998adffab5a7f0c39" cached="false"><style><![CDATA[.floating-star{transform-box:fill-box;transform-origin:center;animation:star-shimmer 3.4s ease-in-out infinite}.floating-star--small{animation-duration:2.8s}.floating-star--medium{animation-duration:3.2s}.floating-star--large{animation-duration:4s}#star-top{animation-name:star-shimmer-contained;animation-delay:0s}#star-left{animation-delay:.5s}#star-upper-left{animation-delay:1s}#star-right{animation-delay:1.5s}@keyframes star-shimmer{0%,100%{opacity:.7;transform:translate3d(0,0,0) scale(.94) rotate(0deg)}35%{opacity:1;transform:translate3d(0,-4px,0) scale(1.08) rotate(4deg)}65%{opacity:.82;transform:translate3d(2px,-7px,0) scale(.98) rotate(-3deg)}}@keyframes star-shimmer-contained{0%,100%{opacity:.7;transform:translate3d(0,0,0) scale(.94) rotate(0deg)}35%{opacity:1;transform:translate3d(0,3px,0) scale(1.04) rotate(3deg)}65%{opacity:.82;transform:translate3d(1px,5px,0) scale(.98) rotate(-2deg)}}]]></style><defs><linearGradient id="ecbaIJKiwmx12-fill" x1="95.2095" y1="173.347" x2="95.2095" y2="280.888" spreadMethod="pad" gradientUnits="userSpaceOnUse" gradientTransform="translate(0 0)"><stop id="ecbaIJKiwmx12-fill-0" offset="0%" stop-color="#354970"/><stop id="ecbaIJKiwmx12-fill-1" offset="100%" stop-color="#18233d"/></linearGradient><linearGradient id="ecbaIJKiwmx39-fill" x1="354.095" y1="278.565" x2="354.095" y2="571.065" spreadMethod="pad" gradientUnits="userSpaceOnUse" gradientTransform="translate(0 0)"><stop id="ecbaIJKiwmx39-fill-0" offset="0%" stop-color="#354970"/><stop id="ecbaIJKiwmx39-fill-1" offset="100%" stop-color="#18233d"/></linearGradient><linearGradient id="ecbaIJKiwmx40-fill" x1="383.995" y1="287.665" x2="383.995" y2="571.065" spreadMethod="pad" gradientUnits="userSpaceOnUse" gradientTransform="translate(0 0)"><stop id="ecbaIJKiwmx40-fill-0" offset="0%" stop-color="#354970"/><stop id="ecbaIJKiwmx40-fill-1" offset="100%" stop-color="#18233d"/></linearGradient><linearGradient id="ecbaIJKiwmx60-fill" x1="374.091" y1="241.735" x2="427.61" y2="248.405" spreadMethod="pad" gradientUnits="userSpaceOnUse" gradientTransform="translate(0 0)"><stop id="ecbaIJKiwmx60-fill-0" offset="0%" stop-color="#fcea91"/><stop id="ecbaIJKiwmx60-fill-1" offset="100%" stop-color="#ffd757"/></linearGradient><linearGradient id="ecbaIJKiwmx63-fill" x1="414.119" y1="200.296" x2="414.326" y2="185.699" spreadMethod="pad" gradientUnits="userSpaceOnUse" gradientTransform="translate(0 0)"><stop id="ecbaIJKiwmx63-fill-0" offset="0%" stop-color="#ffdd67"/><stop id="ecbaIJKiwmx63-fill-1" offset="100%" stop-color="#f5bb37"/></linearGradient><linearGradient id="ecbaIJKiwmx65-fill" x1="405.653" y1="247.81" x2="417.564" y2="251.08" spreadMethod="pad" gradientUnits="userSpaceOnUse" gradientTransform="translate(0 0)"><stop id="ecbaIJKiwmx65-fill-0" offset="0%" stop-color="#fde175"/><stop id="ecbaIJKiwmx65-fill-1" offset="100%" stop-color="#f5bb37"/></linearGradient><linearGradient id="ecbaIJKiwmx72-fill" x1="424.895" y1="247.477" x2="427.294" y2="251.805" spreadMethod="pad" gradientUnits="userSpaceOnUse" gradientTransform="translate(0 0)"><stop id="ecbaIJKiwmx72-fill-0" offset="0%" stop-color="#fa904a"/><stop id="ecbaIJKiwmx72-fill-1" offset="100%" stop-color="#db6742"/></linearGradient><linearGradient id="ecbaIJKiwmx73-fill" x1="428.217" y1="253.403" x2="430.331" y2="257.216" spreadMethod="pad" gradientUnits="userSpaceOnUse" gradientTransform="translate(0 0)"><stop id="ecbaIJKiwmx73-fill-0" offset="0%" stop-color="#fa904a"/><stop id="ecbaIJKiwmx73-fill-1" offset="100%" stop-color="#db6742"/></linearGradient><linearGradient id="ecbaIJKiwmx74-fill" x1="433.293" y1="256.411" x2="435.634" y2="260.634" spreadMethod="pad" gradientUnits="userSpaceOnUse" gradientTransform="translate(0 0)"><stop id="ecbaIJKiwmx74-fill-0" offset="0%" stop-color="#fa904a"/><stop id="ecbaIJKiwmx74-fill-1" offset="100%" stop-color="#db6742"/></linearGradient><linearGradient id="ecbaIJKiwmx75-fill" x1="439.127" y1="256.451" x2="441.751" y2="261.186" spreadMethod="pad" gradientUnits="userSpaceOnUse" gradientTransform="translate(0 0)"><stop id="ecbaIJKiwmx75-fill-0" offset="0%" stop-color="#fa904a"/><stop id="ecbaIJKiwmx75-fill-1" offset="100%" stop-color="#db6742"/></linearGradient><linearGradient id="ecbaIJKiwmx76-fill" x1="444.394" y1="256.289" x2="446.094" y2="259.356" spreadMethod="pad" gradientUnits="userSpaceOnUse" gradientTransform="translate(0 0)"><stop id="ecbaIJKiwmx76-fill-0" offset="0%" stop-color="#fa904a"/><stop id="ecbaIJKiwmx76-fill-1" offset="100%" stop-color="#db6742"/></linearGradient><linearGradient id="ecbaIJKiwmx79-fill" x1="-12.64033" y1="9.5836" x2="9.7326" y2="12.1537" spreadMethod="pad" gradientUnits="userSpaceOnUse" gradientTransform="translate(0 0)"><stop id="ecbaIJKiwmx79-fill-0" offset="0%" stop-color="#fcea91"/><stop id="ecbaIJKiwmx79-fill-1" offset="100%" stop-color="#ffd757"/></linearGradient><linearGradient id="ecbaIJKiwmx81-fill" x1="437.168" y1="239.982" x2="442.665" y2="249.899" spreadMethod="pad" gradientUnits="userSpaceOnUse" gradientTransform="translate(0 0)"><stop id="ecbaIJKiwmx81-fill-0" offset="0%" stop-color="#fff"/><stop id="ecbaIJKiwmx81-fill-1" offset="100%" stop-color="#fce5c2"/></linearGradient><linearGradient id="ecbaIJKiwmx101-fill" x1="95.2095" y1="173.347" x2="95.2095" y2="280.888" spreadMethod="pad" gradientUnits="userSpaceOnUse" gradientTransform="translate(0 0)"><stop id="ecbaIJKiwmx101-fill-0" offset="0%" stop-color="#354970"/><stop id="ecbaIJKiwmx101-fill-1" offset="100%" stop-color="#18233d"/></linearGradient><linearGradient id="ecbaIJKiwmx128-fill" x1="354.095" y1="278.565" x2="354.095" y2="571.065" spreadMethod="pad" gradientUnits="userSpaceOnUse" gradientTransform="translate(0 0)"><stop id="ecbaIJKiwmx128-fill-0" offset="0%" stop-color="#354970"/><stop id="ecbaIJKiwmx128-fill-1" offset="100%" stop-color="#18233d"/></linearGradient><linearGradient id="ecbaIJKiwmx129-fill" x1="383.995" y1="287.665" x2="383.995" y2="571.065" spreadMethod="pad" gradientUnits="userSpaceOnUse" gradientTransform="translate(0 0)"><stop id="ecbaIJKiwmx129-fill-0" offset="0%" stop-color="#354970"/><stop id="ecbaIJKiwmx129-fill-1" offset="100%" stop-color="#18233d"/></linearGradient><linearGradient id="ecbaIJKiwmx152-fill" x1="374.091" y1="241.735" x2="427.61" y2="248.405" spreadMethod="pad" gradientUnits="userSpaceOnUse" gradientTransform="translate(0 0)"><stop id="ecbaIJKiwmx152-fill-0" offset="0%" stop-color="#fcea91"/><stop id="ecbaIJKiwmx152-fill-1" offset="100%" stop-color="#ffd757"/></linearGradient><linearGradient id="ecbaIJKiwmx155-fill" x1="414.119" y1="200.296" x2="414.326" y2="185.699" spreadMethod="pad" gradientUnits="userSpaceOnUse" gradientTransform="translate(0 0)"><stop id="ecbaIJKiwmx155-fill-0" offset="0%" stop-color="#ffdd67"/><stop id="ecbaIJKiwmx155-fill-1" offset="100%" stop-color="#f5bb37"/></linearGradient><linearGradient id="ecbaIJKiwmx157-fill" x1="405.653" y1="247.81" x2="417.564" y2="251.08" spreadMethod="pad" gradientUnits="userSpaceOnUse" gradientTransform="translate(0 0)"><stop id="ecbaIJKiwmx157-fill-0" offset="0%" stop-color="#fde175"/><stop id="ecbaIJKiwmx157-fill-1" offset="100%" stop-color="#f5bb37"/></linearGradient><linearGradient id="ecbaIJKiwmx164-fill" x1="424.895" y1="247.477" x2="427.294" y2="251.805" spreadMethod="pad" gradientUnits="userSpaceOnUse" gradientTransform="translate(0 0)"><stop id="ecbaIJKiwmx164-fill-0" offset="0%" stop-color="#fa904a"/><stop id="ecbaIJKiwmx164-fill-1" offset="100%" stop-color="#db6742"/></linearGradient><linearGradient id="ecbaIJKiwmx165-fill" x1="428.217" y1="253.403" x2="430.331" y2="257.216" spreadMethod="pad" gradientUnits="userSpaceOnUse" gradientTransform="translate(0 0)"><stop id="ecbaIJKiwmx165-fill-0" offset="0%" stop-color="#fa904a"/><stop id="ecbaIJKiwmx165-fill-1" offset="100%" stop-color="#db6742"/></linearGradient><linearGradient id="ecbaIJKiwmx166-fill" x1="433.293" y1="256.411" x2="435.634" y2="260.634" spreadMethod="pad" gradientUnits="userSpaceOnUse" gradientTransform="translate(0 0)"><stop id="ecbaIJKiwmx166-fill-0" offset="0%" stop-color="#fa904a"/><stop id="ecbaIJKiwmx166-fill-1" offset="100%" stop-color="#db6742"/></linearGradient><linearGradient id="ecbaIJKiwmx167-fill" x1="439.127" y1="256.451" x2="441.751" y2="261.186" spreadMethod="pad" gradientUnits="userSpaceOnUse" gradientTransform="translate(0 0)"><stop id="ecbaIJKiwmx167-fill-0" offset="0%" stop-color="#fa904a"/><stop id="ecbaIJKiwmx167-fill-1" offset="100%" stop-color="#db6742"/></linearGradient><linearGradient id="ecbaIJKiwmx168-fill" x1="444.394" y1="256.289" x2="446.094" y2="259.356" spreadMethod="pad" gradientUnits="userSpaceOnUse" gradientTransform="translate(0 0)"><stop id="ecbaIJKiwmx168-fill-0" offset="0%" stop-color="#fa904a"/><stop id="ecbaIJKiwmx168-fill-1" offset="100%" stop-color="#db6742"/></linearGradient><linearGradient id="ecbaIJKiwmx171-fill" x1="-12.64033" y1="9.5836" x2="9.7326" y2="12.1537" spreadMethod="pad" gradientUnits="userSpaceOnUse" gradientTransform="translate(0 0)"><stop id="ecbaIJKiwmx171-fill-0" offset="0%" stop-color="#fcea91"/><stop id="ecbaIJKiwmx171-fill-1" offset="100%" stop-color="#ffd757"/></linearGradient><linearGradient id="ecbaIJKiwmx173-fill" x1="437.168" y1="239.982" x2="442.665" y2="249.899" spreadMethod="pad" gradientUnits="userSpaceOnUse" gradientTransform="translate(0 0)"><stop id="ecbaIJKiwmx173-fill-0" offset="0%" stop-color="#fff"/><stop id="ecbaIJKiwmx173-fill-1" offset="100%" stop-color="#fce5c2"/></linearGradient></defs><path d="M15.0513,360.025C-37.797,254.822,53.3828,45.3211,212.531,157.106c159.147,111.784,267.297,27.754,330.53,70.367c63.234,42.613,71.558,188.85-124.291,250.23C222.921,539.082,67.8995,465.228,15.0513,360.025Z" clip-rule="evenodd" fill="#daffcd" fill-rule="evenodd"/><g mask="url(#ecbaIJKiwmx90)"><g><path d="M152.476,279.028c0,0-6.904,10.326-8.972,45.621-2.069,35.296-5.668,246.761-5.668,246.761h33.569c0,0,13.96-137.597,16.066-164.054s14.276-126.468,14.276-126.468l-49.271-1.86Z" clip-rule="evenodd" fill="#6fbf44" fill-rule="evenodd"/><path d="M195.263,333.815L184.85,323.018L168.6,571.411h2.805l23.858-237.596Z" clip-rule="evenodd" fill="#2b8c6b" fill-rule="evenodd"/><path d="M195.263,334.465l-11.587-13.683" fill="none" stroke="#fff" stroke-width="1.3" stroke-linecap="round"/><path d="M155.238,280.888c0,0-9.666,42.257-9.666,84.24c0,41.982-4.901,205.82-4.901,205.82" fill="none" stroke="#fff" stroke-width="1.3" stroke-linecap="round"/><path d="M236.742,278.565c0,0,9.917,26.062,9.917,50.153c0,24.09,4.723,242.23,4.723,242.23h-33.569c0,0-10.634-137.135-12.74-163.592s-17.602-126.931-17.602-126.931l49.271-1.86Z" clip-rule="evenodd" fill="#6fbf44" fill-rule="evenodd"/><path d="M229.576,279.028c0,0,9.194,26.025,11.832,64.674s5.991,227.246,5.991,227.246" fill="none" stroke="#fff" stroke-width="1.3" stroke-linecap="round"/><path d="M152.476,280.888c0,0,21.677,2.903,44.724,2.903s38.481-2.903,38.481-2.903h-83.205Z" clip-rule="evenodd" fill="#fff" fill-rule="evenodd"/><path d="M176.566,173.347c0,0-32.832,2.752-46.19,13.254-13.358,10.501-35.1665,51.996-35.1665,51.996l28.4295,21.118l14.617-21.118c0,0,3.235,33.761,14.22,42.291h83.205c0,0,12.814-11.286,16.906-42.291l50.319-4.232-3.282-39.74c0,0-50.89-22.024-96.909-21.194l-26.149-.084Z" clip-rule="evenodd" fill="url(#ecbaIJKiwmx12-fill)" fill-rule="evenodd"/><path d="M101.731,232.568c-4.0166-2.356-7.3031,2.929-10.9384,8.311s-6.3947,5.549-.5122,9.187s26.3736,22.795,29.7266,19.937s3.066-11.148,5.783-11.725c2.717-.578,6.789-2.197,1.083-8.266-5.706-6.068-21.126-15.089-25.142-17.444Z" clip-rule="evenodd" fill="#6fbf44" fill-rule="evenodd"/><path d="M281.102,217.131c0,11.078,3.058,21.05,23.171,21.078c20.113.027,25.168-28.773,20.044-37.316s-12.78-22.331-26.468-18.148c-13.689,4.183-16.747,23.307-16.747,34.386Z" clip-rule="evenodd" fill="#6fbf44" fill-rule="evenodd"/><g class="girl-raised-wave" transform="rotate(0 321 199)"><animateTransform attributeName="transform" type="rotate" values="7 321 199;-5 321 199;7 321 199" dur="1.9s" repeatCount="indefinite"/><path d="M321.002,199.433c-1.296,12.335-5.682,27.5-18.397,26.163-12.714-1.336-17.02-24.079-10.823-51.178c6.196-27.1,17.054-71.188,17.054-71.188l-.285-.414c-5.298-7.6751-9.058-16.3043-11.072-25.4101l-3.022-6.1337c-.471-.9574-.149-2.1163.75-2.6926.734-.4709,1.682-.4385,2.383.0813l3.493,2.5937c.943.6998,1.728,1.5896,2.306,2.6117l4.142,7.3329-.032-28.3147c-.002-1.2668.961-2.3269,2.222-2.4474c1.335-.1277,2.526.8396,2.674,2.1727l2.252,20.2147l4.178-23.436c.241-1.3495,1.483-2.2838,2.846-2.1405c1.379.1449,2.405,1.3414,2.337,2.7263l-1.154,23.7129l6.852-17.5934c.482-1.2388,1.855-1.8778,3.114-1.4495c1.271.4328,1.972,1.7894,1.579,3.0741-1.723,5.6314-5.968,19.6208-5.42,18.9602.512-.6186,3.657-6.3849,5.205-9.2428.492-.9088,1.582-1.3132,2.547-.9435c1.041.3987,1.574,1.5548,1.201,2.6053l-7.485,21.0956-3.763,14.0008c0,0-4.385,82.903-5.682,95.239Z" clip-rule="evenodd" fill="#ffd1ab" fill-rule="evenodd"/><path d="M308.072,79.9682c0,0,11.98,7.7931,11.439,12.9411" fill="none" stroke="#fff" stroke-width="1.3" stroke-linecap="round"/><path d="M330.78,77.019c0,0-7.166-5.2542-18.71-4.6406" fill="none" stroke="#fff" stroke-width="1.3" stroke-linecap="round"/></g><path d="M174.018,140.877c0,0,3.234,9.801,1.617,19.5s-1.617,13.459-4.23,15.009c0,0,9.831,8.544,19.572,8.544c9.74,0,18.702-8.544,18.702-8.544s-5.755-2.082-5.755-13.132.783-24.498.783-24.498l-30.689,3.121Z" clip-rule="evenodd" fill="#ffd1ab" fill-rule="evenodd"/><path d="M204.226,147.612c-.201,5.189-.302,10.069-.302,14.642c0,5.17.945,8.868,2.834,11.093-18.739-7.326-28.917-12.49-30.532-15.494.057-1.606.029-3.18-.059-4.68-.025-1.375-.123-2.751-.294-4.129l28.353-1.432Z" clip-rule="evenodd" fill="#cf8b54" fill-rule="evenodd"/><path d="M169.93,139.64c-6.73-10.333-8.818-29.817,5.836-34.111.995-14.69,34.344-8.3402,38.588,7.313c4.243,15.653-4.488,37.816-16.77,40.47s-20.924-3.339-27.654-13.672Z" clip-rule="evenodd" fill="#18233d" fill-rule="evenodd"/><path d="M182.376,106.965c0,0,12.407,4.292,20.339,4.292" fill="none" stroke="#fff" stroke-width="1.3" stroke-linecap="round"/><path d="M176.566,114.162c3.947-1.532,14.581,2.031,19.195,2.821c3.669.629,8.624,1.697,10.997-1.912-.738,19.867.934,14.28,2.994,14.503.419-.126.863-.194,1.323-.194c2.592,0,4.693,2.148,4.693,4.798c0,2.649-2.101,4.797-4.693,4.797-1.209,0-2.31-.467-3.142-1.234.006,8.407-3.542,24.314-18.137,24.314-14.594,0-16.169-13.066-17.929-24.647-.318.07-.649.107-.988.107-2.592,0-4.693-2.148-4.693-4.797c0-2.65,2.101-4.798,4.693-4.798.183,0,.143,2.524.988,2.228c2.458-1.347,2.011-8.234,4.699-15.986Z" clip-rule="evenodd" fill="#ffd1ab" fill-rule="evenodd"/><path d="M185.361,149.045c0,0,2.075,2.6,6.5,0" fill="none" stroke="#18233d" stroke-width="1.3" stroke-linecap="round"/><path d="M188.2,131.435c.921,3.472-2.007,10.767-2.608,12.681-.6,1.914,2.842,0,2.842,0" fill="none" stroke="#18233d" stroke-width="1.3" stroke-linecap="round"/><path d="M193.422,127.524c0,0,4.102-1.951,8.325.745" fill="none" stroke="#18233d" stroke-width="1.3" stroke-linecap="round"/><path d="M176.651,127.939c0,0,3.874-2.368,8.358-.126" fill="none" stroke="#18233d" stroke-width="1.3" stroke-linecap="round"/><ellipse rx="1.30478" ry="1.29794" transform="translate(197.066 131.446)" fill="#18233d"/><ellipse rx="1.30478" ry="1.29794" transform="translate(181.408 131.446)" fill="#18233d"/><path d="M209.679,135.339l2.609-.865" fill="none" stroke="#18233d" stroke-width="1.3" stroke-linecap="round"/><path d="M171.405,133.609l-2.609-.865" fill="none" stroke="#18233d" stroke-width="1.3" stroke-linecap="round"/><path d="M215.44,126.705l2.036,9.767" fill="none" stroke="#fff" stroke-width="1.3" stroke-linecap="round"/><rect width="24.7" height="45.5" rx="1.3" ry="1.3" transform="translate(184.85 200.638)" fill="#fe8b6e"/><path d="M90.2804,250.066c0,0-11.851,34.504,9.666,40.962c21.5166,6.458,82.7006-46.198,82.7006-46.198s16.684-3.286,19.1-12.297c2.416-9.012,3.326-17.475,3.326-17.475l-20.237,9.29v-6.5c0,0-5.083,2.309-7.505,8.794-11.888,5.991-73.216,33.073-73.216,33.073l-13.8346-9.649Z" clip-rule="evenodd" fill="#ffd1ab" fill-rule="evenodd"/><path d="M204.371,221.365c0,0-5.094,4.182-7.8,5.2" fill="none" stroke="#18233d" stroke-width="1.3" stroke-linecap="round"/><path d="M204.371,225.265c0,0-5.094,4.182-7.8,5.2" fill="none" stroke="#18233d" stroke-width="1.3" stroke-linecap="round"/><path d="M201.771,231.765c0,0-3.396,3.136-5.2,3.9" fill="none" stroke="#18233d" stroke-width="1.3" stroke-linecap="round"/><path d="M97.2529,262.281c0,0,29.5021-12.693,40.5831-18.189" fill="none" stroke="#fff" stroke-width="1.3" stroke-linecap="round"/><path d="M391.829,136.01c0,0-12.24-.739-15.093,9.183-2.854,9.921-1.7,50.214-12.491,59.82s17.232,32.625,50.271,23.252c33.039-9.372,31.425-19.76,26.752-27.916-4.673-8.155-5.22-47.481-19.483-63.142s-29.956-1.197-29.956-1.197Z" clip-rule="evenodd" fill="#18233d" fill-rule="evenodd"/><path d="M359.752,288.366c0,0-9.892,53.149-2.488,82.039c7.403,28.89,21.59,85.498,21.59,85.498s-8.41,19.65-8.41,50.662c0,31.013-3.97,64.5-3.97,64.5h22.625c0,0,22.93-104.068,25.972-128.181c1.193-9.45-6.623-53.508-8.512-89.705-1.324-25.377,1.224-74.614,1.224-74.614l-48.031,9.801Z" clip-rule="evenodd" fill="url(#ecbaIJKiwmx39-fill)" fill-rule="evenodd"/><path d="M438.857,287.665l62.138,283.4h-23.06c0,0-25.244-58.104-28.949-70.92s-6.491-37.094-6.491-37.094-27.136-81.125-36.791-109.364c-10.717-31.348-20.248-46.603-21.709-66.022h54.862Z" clip-rule="evenodd" fill="url(#ecbaIJKiwmx40-fill)" fill-rule="evenodd"/><path d="M390.34,197.965c0,0-26.887.917-32.975,10.465-6.087,9.549,6.626,54.502,6.626,54.502s-8.471,26.5-6.626,30.841c1.846,4.34,83.07,2.681,86.492,2.681c3.421,0-6.986-33.522-6.986-33.522s16.024-34.023,16.024-49.495-62.555-15.472-62.555-15.472Z" clip-rule="evenodd" fill="#6fbf44" fill-rule="evenodd"/><path d="M357.995,294.743l48.414-51.278l20.486,1.871-15.832,4.845l1.498,2.162c0,0-12.079,22.17-20.116,30.618-8.038,8.448-20.023,13.804-20.023,13.804s-6.686-.127-10.211-.621-4.216-1.401-4.216-1.401Z" clip-rule="evenodd" fill="#2b8c6b" fill-rule="evenodd"/><path d="M400.895,138.165c0,0,14.863,18.2,23.4,18.2" fill="none" stroke="#fff" stroke-width="1.3" stroke-linecap="round"/><path d="M389.38,169.065c0,0,2.458,8.856,1.229,17.62s-1.229,12.161-3.216,13.562c0,0-2.517,17.815,13.45,18.99c15.966,1.175,15.641-18.99,15.641-18.99s-4.374-1.881-4.374-11.866.596-22.136.596-22.136l-23.326,2.82Z" clip-rule="evenodd" fill="#ffd1ab" fill-rule="evenodd"/><path d="M412.249,175.151c-.152,4.688-.228,9.098-.228,13.23c0,4.672.712,8.013,2.136,10.023-14.121-6.619-21.79-11.286-23.007-14c.044-1.451.022-2.873-.044-4.229-.019-1.242-.093-2.486-.222-3.731l21.365-1.293Z" clip-rule="evenodd" fill="#cf8b54" fill-rule="evenodd"/><path d="M394.675,146.922c6.34-1.844,7.515,4.116,11.679,7.226c4.164,3.111,10.679,5.677,12.523,5.878.375-.114.773-.175,1.184-.175c2.32,0,4.201,1.941,4.201,4.335s-1.881,4.335-4.201,4.335c-1.081,0-2.068-.422-2.812-1.115.005,7.597-3.171,21.969-16.234,21.969-13.064,0-14.473-11.805-16.049-22.27-.285.064-.581.097-.884.097-2.32,0-4.201-1.941-4.201-4.335s1.881-4.335,4.201-4.335c.163,0,10.449-3.608,10.593-11.61Z" clip-rule="evenodd" fill="#ffd1ab" fill-rule="evenodd"/><path d="M399.586,161.708c.824,3.137-1.797,9.729-2.334,11.458-.538,1.73,2.543,0,2.543,0" fill="none" stroke="#18233d" stroke-width="1.3" stroke-linecap="round"/><path d="M404.26,158.174c0,0,3.672-1.763,7.452.673" fill="none" stroke="#18233d" stroke-width="1.3" stroke-linecap="round"/><path d="M389.248,158.549c0,0,3.468-2.139,7.481-.114" fill="none" stroke="#18233d" stroke-width="1.3" stroke-linecap="round"/><ellipse rx="1.16792" ry="1.1728" transform="translate(407.522 161.717)" fill="#18233d"/><ellipse rx="1.16792" ry="1.1728" transform="translate(393.507 161.717)" fill="#18233d"/><path d="M396.232,177.505l7.126-.541c0,0-1.012,3.599-3.563,3.599s-3.563-3.058-3.563-3.058Z" clip-rule="evenodd" fill="#fff" fill-rule="evenodd"/><path d="M418.812,165.236l2.335-.782" fill="none" stroke="#18233d" stroke-width="1.3" stroke-linecap="round"/><path d="M384.553,163.672l-2.336-.782" fill="none" stroke="#18233d" stroke-width="1.3" stroke-linecap="round"/><g class="guy-raised-wave" transform="rotate(0 432 237)"><animateTransform attributeName="transform" type="rotate" values="-3 432 237;2 432 237;-3 432 237" dur="1.7s" repeatCount="indefinite"/><path d="M536.641,183.648c-3.963,9.808-8.718,23.986-19.069,19.804-10.35-4.182-8.66-23.891,2.854-44.626c11.514-20.736,30.898-54.282,30.898-54.282l-.174-.498c-2.633-7.524-3.764-15.4915-3.331-23.4512l-1.095-5.7232c-.176-.9197.378-1.822,1.278-2.0805.71-.2038,1.472.0437,1.926.6255l2.332,2.985c.638.8161,1.098,1.7566,1.35,2.7611l1.755,6.9845l6.557-23.1868c.303-1.0707,1.374-1.7323,2.467-1.5239c1.143.2181,1.904,1.3081,1.715,2.4567l-2.82,17.1079l8.946-18.1752c.529-1.0742,1.797-1.5584,2.907-1.1099c1.123.4538,1.698,1.7051,1.309,2.8526l-6.48,19.1322l9.835-12.7587c.702-.9117,1.995-1.115,2.944-.4629.973.6688,1.236,1.9863.589,2.9735-2.781,4.239-9.54,14.5967-8.929,14.1892.573-.3829,4.548-4.345,6.515-6.3166.63-.6318,1.628-.7065,2.344-.1742.787.5849.958,1.6936.383,2.4883L572.485,99.089l-6.419,10.577c0,0-25.462,64.174-29.425,73.982Z" clip-rule="evenodd" fill="#ffd1ab" fill-rule="evenodd"/><path d="M556.649,85.2525c0,0,8.384,9.2855,6.753,13.3243" fill="none" stroke="#fff" stroke-width="1.3" stroke-linecap="round"/><path d="M576.275,89.2691c0,0-4.813-6.2008-14.772-8.4967" fill="none" stroke="#fff" stroke-width="1.3" stroke-linecap="round"/><path d="M528.339,203.482c-11.024,11.402-88.834,43.883-88.834,43.883l-7.41-44.999l26.267-3.695l48.258-22.915" clip-rule="evenodd" fill="#6fbf44" fill-rule="evenodd"/><path d="M506.195,175.865l2.6,7.8" fill="none" stroke="#fff" stroke-width="1.3" stroke-linecap="round"/></g><path d="M412.131,191.473c0,0,7.729.224,10.167,8.244s.786,34.082,8.783,40.842l-7.859,9.076c0,0-33.813-8.252-42.643-29.085s9.57-28.876,9.57-28.876l-1.337,6.621c0,0-6.974,6.077-3.961,15.095c3.013,9.017,23.137,24.346,33.156,26.39-1.936-8.841-3.4-24.542-2.427-33.118s-3.764-11.067-3.764-11.067l.315-4.122Z" clip-rule="evenodd" fill="url(#ecbaIJKiwmx60-fill)" fill-rule="evenodd"/><g mask="url(#ecbaIJKiwmx67)"><g><path d="M423.394,206.532l-7.986,2.077c.045-.682.103-1.333.172-1.947.649-5.717-.606-9.406-3.764-11.067l.315-4.122c5.153.149,8.542,2.897,10.167,8.244.496,1.631.823,4.007,1.096,6.815ZM380.4,199.27c2.103-3.173,5.456-5.774,10.06-7.805l-1.337,6.621c-1.855,1.601-3.21,3.335-4.063,5.202l-4.66-4.018Z" clip-rule="evenodd" fill="url(#ecbaIJKiwmx63-fill)" fill-rule="evenodd"/><path d="M411.251,192.596c0,0,7.808.882,9.428,10.426c1.619,9.544-2.79,24.322,4.037,36.788" fill="none" stroke="#fff" stroke-width="1.69"/><path d="M418.007,239.78l5.215,9.855c0,0-9.276-2.705-13.001-3.816-3.724-1.111-2.918-10.813-2.918-10.813s3.568,2.207,5.725,3.169s4.979,1.605,4.979,1.605Z" clip-rule="evenodd" fill="url(#ecbaIJKiwmx65-fill)" fill-rule="evenodd"/><path d="M389.843,194.625c0,0-7.919,2.717-9.264,13.112s13.557,30.537,36.945,37.021" fill="none" stroke="#fff" stroke-width="1.3" stroke-linecap="round"/></g><mask id="ecbaIJKiwmx67" mask-type="luminance" x="-150%" y="-150%" height="400%" width="400%"><path d="M412.131,191.473c0,0,7.729.224,10.167,8.244s.786,34.082,8.783,40.842l-7.859,9.076c0,0-33.813-8.252-42.643-29.085s9.57-28.876,9.57-28.876l-1.337,6.621c0,0-6.974,6.077-3.961,15.095c3.013,9.017,23.137,24.346,33.156,26.39-1.936-8.841-3.4-24.542-2.427-33.118s-3.764-11.067-3.764-11.067l.315-4.122Z" transform="translate(0.000001 0)" clip-rule="evenodd" fill="#fff" fill-rule="evenodd"/></mask></g><ellipse rx="11.1288" ry="13.1577" transform="matrix(-0.309017 0.951057 0.951057 0.309017 434.71673 250.515069)" fill="#f5bb37"/><g mask="url(#ecbaIJKiwmx77)"><g><path d="M425.788,249.088l-4.14,5.846-1.628-1.203l4.14-5.847l1.628,1.204Z" fill="url(#ecbaIJKiwmx72-fill)"/><path d="M429.094,254.985l-2.987,4.572-1.669-1.142l2.987-4.573l1.669,1.143Z" fill="url(#ecbaIJKiwmx73-fill)"/><path d="M434.059,257.792l-1.837,4.733-1.856-.777l1.837-4.733l1.856.777Z" fill="url(#ecbaIJKiwmx74-fill)"/><path d="M439.732,257.543l-2.069,5.909-1.972-.335l2.069-5.908l1.972.334Z" fill="url(#ecbaIJKiwmx75-fill)"/><path d="M444.719,256.876l-1.088,3.845-1.961.319l1.089-3.845l1.96-.319Z" fill="url(#ecbaIJKiwmx76-fill)"/></g><mask id="ecbaIJKiwmx77" mask-type="luminance" x="-150%" y="-150%" height="400%" width="400%"><ellipse rx="11.1288" ry="13.1577" transform="matrix(-0.309017 0.951057 0.951057 0.309017 434.71673 250.515069)" fill="#fff"/></mask></g><ellipse rx="11.1288" ry="13.1577" transform="matrix(-0.309017 0.951057 0.951057 0.309017 435.60873 248.858069)" fill="url(#ecbaIJKiwmx79-fill)"/><ellipse rx="8.42177" ry="9.8432" transform="matrix(-0.309017 0.951057 0.951057 0.309017 435.608971 248.858294)" fill="none" stroke="#fff" stroke-width="0.845"/><path d="M430.38,249.62c-.297-.095-.525-.35-.594-.665-.07-.316.033-.626.269-.81l2.095-1.638c.089-.069.136-.183.126-.304l-.232-2.84c-.026-.319.12-.608.381-.752.261-.145.583-.116.839.075l2.286,1.702c.098.073.219.093.326.054l2.498-.909c.281-.102.599-.025.83.201.231.227.326.555.25.857l-.682,2.688c-.029.115-.002.242.074.339l1.776,2.278c.156.201.222.444.185.685-.057.374-.366.65-.739.645l-2.707-.04c-.113-.002-.221.059-.28.155l-1.4,2.317c-.068.113-.159.201-.269.262-.201.111-.445.119-.67.022-.224-.096-.395-.281-.482-.519l-.991-2.714c-.042-.116-.135-.206-.248-.242l-2.641-.847Z" fill="url(#ecbaIJKiwmx81-fill)"/><path d="M364.615,202.636c0,0-11.697,2.567-16.146,17.741s-17.851,46.937-12.723,65.541c2.128,7.721,11.31,10.969,22.694,8.971c16.045-2.817,31.03-16.224,47.655-41.885l-10.516-9.97-33.675,21.527l2.711-61.925Z" clip-rule="evenodd" fill="#6fbf44" fill-rule="evenodd"/><path d="M361.895,264.265l-9.1,9.1" fill="none" stroke="#fff" stroke-width="1.3" stroke-linecap="round"/><path d="M367.785,236.965c-1.948,11.941-5.89,27.3-5.89,27.3l33.8-21.131" fill="none" stroke="#fff" stroke-width="1.3" stroke-linecap="round"/><rect width="16.9" height="31.2" rx="1.3" ry="1.3" transform="translate(409.995 216.165)" fill="#fe8b6e"/><path d="M396.995,244.142c0,0,7.261-9.244,9.189-12.206c1.929-2.963,4.124-6.031,4.124-6.031v6.031c0,0,12.192-5.61,12.896-9.271c1.107,7.339,2.465,9.452-2.059,16.939-4.525,7.486-17.199,11.661-17.199,11.661l-6.951-7.123Z" clip-rule="evenodd" fill="#ffd1ab" fill-rule="evenodd"/><path d="M424.295,227.865c0,0-5.094,4.182-7.8,5.2" fill="none" stroke="#18233d" stroke-width="1.3" stroke-linecap="round"/><path d="M424.295,231.765c0,0-5.094,4.182-7.8,5.2" fill="none" stroke="#18233d" stroke-width="1.3" stroke-linecap="round"/><path d="M421.695,238.265c0,0-3.396,3.136-5.2,3.9" fill="none" stroke="#18233d" stroke-width="1.3" stroke-linecap="round"/></g><mask id="ecbaIJKiwmx90" mask-type="luminance" x="-150%" y="-150%" height="400%" width="400%"><path d="M83.4714,439.081c0,0,114.5666,76.258,256.6336,53.984c142.066-22.273,195.432-80.053,195.432-80.053l-36.278-157.67c0,0,79.869-57.612,90.879-119.258c11.01-61.6461,4.271-103.7288-29.513-103.7288s-82.13,112.7038-107.73,108.4098c-25.601-4.293-33.021-64.0573-62.011-47.8557-28.989,16.2017-18.683-72.7642-79.092-60.5541-60.41,12.2101-14.921,81.6068-73.305,60.5541-58.383-21.0526-105.22-5.9956-120.943,32.6837-15.722,38.678-72.4463,84.998-51.9595,153.435s33.7118,62.785,31.6684,104.837c-2.0434,42.053-13.7815,55.216-13.7815,55.216Z" clip-rule="evenodd" fill="#fff" fill-rule="evenodd"/></mask></g><g mask="url(#ecbaIJKiwmx182)"><g><path d="M152.476,279.028c0,0-6.904,10.326-8.972,45.621-2.069,35.296-5.668,246.761-5.668,246.761h33.569c0,0,13.96-137.597,16.066-164.054s14.276-126.468,14.276-126.468l-49.271-1.86Z" clip-rule="evenodd" fill="#6fbf44" fill-rule="evenodd"/><path d="M195.263,333.815L184.85,323.018L168.6,571.411h2.805l23.858-237.596Z" clip-rule="evenodd" fill="#2b8c6b" fill-rule="evenodd"/><path d="M195.263,334.465l-11.587-13.683" fill="none" stroke="#fff" stroke-width="1.3" stroke-linecap="round"/><path d="M155.238,280.888c0,0-9.666,42.257-9.666,84.24c0,41.982-4.901,205.82-4.901,205.82" fill="none" stroke="#fff" stroke-width="1.3" stroke-linecap="round"/><path d="M236.742,278.565c0,0,9.917,26.062,9.917,50.153c0,24.09,4.723,242.23,4.723,242.23h-33.569c0,0-10.634-137.135-12.74-163.592s-17.602-126.931-17.602-126.931l49.271-1.86Z" clip-rule="evenodd" fill="#6fbf44" fill-rule="evenodd"/><path d="M229.576,279.028c0,0,9.194,26.025,11.832,64.674s5.991,227.246,5.991,227.246" fill="none" stroke="#fff" stroke-width="1.3" stroke-linecap="round"/><path d="M152.476,280.888c0,0,21.677,2.903,44.724,2.903s38.481-2.903,38.481-2.903h-83.205Z" clip-rule="evenodd" fill="#fff" fill-rule="evenodd"/><path d="M176.566,173.347c0,0-32.832,2.752-46.19,13.254-13.358,10.501-35.1665,51.996-35.1665,51.996l28.4295,21.118l14.617-21.118c0,0,3.235,33.761,14.22,42.291h83.205c0,0,12.814-11.286,16.906-42.291l50.319-4.232-3.282-39.74c0,0-50.89-22.024-96.909-21.194l-26.149-.084Z" clip-rule="evenodd" fill="url(#ecbaIJKiwmx101-fill)" fill-rule="evenodd"/><path d="M101.731,232.568c-4.0166-2.356-7.3031,2.929-10.9384,8.311s-6.3947,5.549-.5122,9.187s26.3736,22.795,29.7266,19.937s3.066-11.148,5.783-11.725c2.717-.578,6.789-2.197,1.083-8.266-5.706-6.068-21.126-15.089-25.142-17.444Z" clip-rule="evenodd" fill="#6fbf44" fill-rule="evenodd"/><path d="M281.102,217.131c0,11.078,3.058,21.05,23.171,21.078c20.113.027,25.168-28.773,20.044-37.316s-12.78-22.331-26.468-18.148c-13.689,4.183-16.747,23.307-16.747,34.386Z" clip-rule="evenodd" fill="#6fbf44" fill-rule="evenodd"/><g class="girl-raised-wave" transform="rotate(0 321 199)"><animateTransform attributeName="transform" type="rotate" values="7 321 199;-5 321 199;7 321 199" dur="1.9s" repeatCount="indefinite"/><path d="M321.002,199.433c-1.296,12.335-5.682,27.5-18.397,26.163-12.714-1.336-17.02-24.079-10.823-51.178c6.196-27.1,17.054-71.188,17.054-71.188l-.285-.414c-5.298-7.6751-9.058-16.3043-11.072-25.4101l-3.022-6.1337c-.471-.9574-.149-2.1163.75-2.6926.734-.4709,1.682-.4385,2.383.0813l3.493,2.5937c.943.6998,1.728,1.5896,2.306,2.6117l4.142,7.3329-.032-28.3147c-.002-1.2668.961-2.3269,2.222-2.4474c1.335-.1277,2.526.8396,2.674,2.1727l2.252,20.2147l4.178-23.436c.241-1.3495,1.483-2.2838,2.846-2.1405c1.379.1449,2.405,1.3414,2.337,2.7263l-1.154,23.7129l6.852-17.5934c.482-1.2388,1.855-1.8778,3.114-1.4495c1.271.4328,1.972,1.7894,1.579,3.0741-1.723,5.6314-5.968,19.6208-5.42,18.9602.512-.6186,3.657-6.3849,5.205-9.2428.492-.9088,1.582-1.3132,2.547-.9435c1.041.3987,1.574,1.5548,1.201,2.6053l-7.485,21.0956-3.763,14.0008c0,0-4.385,82.903-5.682,95.239Z" clip-rule="evenodd" fill="#ffd1ab" fill-rule="evenodd"/><path d="M308.072,79.9682c0,0,11.98,7.7931,11.439,12.9411" fill="none" stroke="#fff" stroke-width="1.3" stroke-linecap="round"/><path d="M330.78,77.019c0,0-7.166-5.2542-18.71-4.6406" fill="none" stroke="#fff" stroke-width="1.3" stroke-linecap="round"/></g><path d="M174.018,140.877c0,0,3.234,9.801,1.617,19.5s-1.617,13.459-4.23,15.009c0,0,9.831,8.544,19.572,8.544c9.74,0,18.702-8.544,18.702-8.544s-5.755-2.082-5.755-13.132.783-24.498.783-24.498l-30.689,3.121Z" clip-rule="evenodd" fill="#ffd1ab" fill-rule="evenodd"/><path d="M204.226,147.612c-.201,5.189-.302,10.069-.302,14.642c0,5.17.945,8.868,2.834,11.093-18.739-7.326-28.917-12.49-30.532-15.494.057-1.606.029-3.18-.059-4.68-.025-1.375-.123-2.751-.294-4.129l28.353-1.432Z" clip-rule="evenodd" fill="#cf8b54" fill-rule="evenodd"/><path d="M169.93,139.64c-6.73-10.333-8.818-29.817,5.836-34.111.995-14.69,34.344-8.3402,38.588,7.313c4.243,15.653-4.488,37.816-16.77,40.47s-20.924-3.339-27.654-13.672Z" clip-rule="evenodd" fill="#18233d" fill-rule="evenodd"/><path d="M182.376,106.965c0,0,12.407,4.292,20.339,4.292" fill="none" stroke="#fff" stroke-width="1.3" stroke-linecap="round"/><path d="M176.566,114.162c3.947-1.532,14.581,2.031,19.195,2.821c3.669.629,8.624,1.697,10.997-1.912-.738,19.867.934,14.28,2.994,14.503.419-.126.863-.194,1.323-.194c2.592,0,4.693,2.148,4.693,4.798c0,2.649-2.101,4.797-4.693,4.797-1.209,0-2.31-.467-3.142-1.234.006,8.407-3.542,24.314-18.137,24.314-14.594,0-16.169-13.066-17.929-24.647-.318.07-.649.107-.988.107-2.592,0-4.693-2.148-4.693-4.797c0-2.65,2.101-4.798,4.693-4.798.183,0,.143,2.524.988,2.228c2.458-1.347,2.011-8.234,4.699-15.986Z" clip-rule="evenodd" fill="#ffd1ab" fill-rule="evenodd"/><path d="M185.361,149.045c0,0,2.075,2.6,6.5,0" fill="none" stroke="#18233d" stroke-width="1.3" stroke-linecap="round"/><path d="M188.2,131.435c.921,3.472-2.007,10.767-2.608,12.681-.6,1.914,2.842,0,2.842,0" fill="none" stroke="#18233d" stroke-width="1.3" stroke-linecap="round"/><path d="M193.422,127.524c0,0,4.102-1.951,8.325.745" fill="none" stroke="#18233d" stroke-width="1.3" stroke-linecap="round"/><path d="M176.651,127.939c0,0,3.874-2.368,8.358-.126" fill="none" stroke="#18233d" stroke-width="1.3" stroke-linecap="round"/><ellipse rx="1.30478" ry="1.29794" transform="translate(197.066 131.446)" fill="#18233d"/><ellipse rx="1.30478" ry="1.29794" transform="translate(181.408 131.446)" fill="#18233d"/><path d="M209.679,135.339l2.609-.865" fill="none" stroke="#18233d" stroke-width="1.3" stroke-linecap="round"/><path d="M171.405,133.609l-2.609-.865" fill="none" stroke="#18233d" stroke-width="1.3" stroke-linecap="round"/><path d="M215.44,126.705l2.036,9.767" fill="none" stroke="#fff" stroke-width="1.3" stroke-linecap="round"/><rect width="24.7" height="45.5" rx="1.3" ry="1.3" transform="translate(184.85 200.638)" fill="#fe8b6e"/><path d="M90.2804,250.066c0,0-11.851,34.504,9.666,40.962c21.5166,6.458,82.7006-46.198,82.7006-46.198s16.684-3.286,19.1-12.297c2.416-9.012,3.326-17.475,3.326-17.475l-20.237,9.29v-6.5c0,0-5.083,2.309-7.505,8.794-11.888,5.991-73.216,33.073-73.216,33.073l-13.8346-9.649Z" clip-rule="evenodd" fill="#ffd1ab" fill-rule="evenodd"/><path d="M204.371,221.365c0,0-5.094,4.182-7.8,5.2" fill="none" stroke="#18233d" stroke-width="1.3" stroke-linecap="round"/><path d="M204.371,225.265c0,0-5.094,4.182-7.8,5.2" fill="none" stroke="#18233d" stroke-width="1.3" stroke-linecap="round"/><path d="M201.771,231.765c0,0-3.396,3.136-5.2,3.9" fill="none" stroke="#18233d" stroke-width="1.3" stroke-linecap="round"/><path d="M97.2529,262.281c0,0,29.5021-12.693,40.5831-18.189" fill="none" stroke="#fff" stroke-width="1.3" stroke-linecap="round"/><path d="M391.829,136.01c0,0-12.24-.739-15.093,9.183-2.854,9.921-1.7,50.214-12.491,59.82s17.232,32.625,50.271,23.252c33.039-9.372,31.425-19.76,26.752-27.916-4.673-8.155-5.22-47.481-19.483-63.142s-29.956-1.197-29.956-1.197Z" clip-rule="evenodd" fill="#18233d" fill-rule="evenodd"/><path d="M359.752,288.366c0,0-9.892,53.149-2.488,82.039c7.403,28.89,21.59,85.498,21.59,85.498s-8.41,19.65-8.41,50.662c0,31.013-3.97,64.5-3.97,64.5h22.625c0,0,22.93-104.068,25.972-128.181c1.193-9.45-6.623-53.508-8.512-89.705-1.324-25.377,1.224-74.614,1.224-74.614l-48.031,9.801Z" clip-rule="evenodd" fill="url(#ecbaIJKiwmx128-fill)" fill-rule="evenodd"/><path d="M438.857,287.665l62.138,283.4h-23.06c0,0-25.244-58.104-28.949-70.92s-6.491-37.094-6.491-37.094-27.136-81.125-36.791-109.364c-10.717-31.348-20.248-46.603-21.709-66.022h54.862Z" clip-rule="evenodd" fill="url(#ecbaIJKiwmx129-fill)" fill-rule="evenodd"/><path d="M390.34,197.965c0,0-26.887.917-32.975,10.465-6.087,9.549,6.626,54.502,6.626,54.502s-8.471,26.5-6.626,30.841c1.846,4.34,83.07,2.681,86.492,2.681c3.421,0-6.986-33.522-6.986-33.522s16.024-34.023,16.024-49.495-62.555-15.472-62.555-15.472Z" clip-rule="evenodd" fill="#6fbf44" fill-rule="evenodd"/><path d="M357.995,294.743l48.414-51.278l20.486,1.871-15.832,4.845l1.498,2.162c0,0-12.079,22.17-20.116,30.618-8.038,8.448-20.023,13.804-20.023,13.804s-6.686-.127-10.211-.621-4.216-1.401-4.216-1.401Z" clip-rule="evenodd" fill="#2b8c6b" fill-rule="evenodd"/><path d="M400.895,138.165c0,0,14.863,18.2,23.4,18.2" fill="none" stroke="#fff" stroke-width="1.3" stroke-linecap="round"/><path d="M389.38,169.065c0,0,2.458,8.856,1.229,17.62s-1.229,12.161-3.216,13.562c0,0-2.517,17.815,13.45,18.99c15.966,1.175,15.641-18.99,15.641-18.99s-4.374-1.881-4.374-11.866.596-22.136.596-22.136l-23.326,2.82Z" clip-rule="evenodd" fill="#ffd1ab" fill-rule="evenodd"/><path d="M412.249,175.151c-.152,4.688-.228,9.098-.228,13.23c0,4.672.712,8.013,2.136,10.023-14.121-6.619-21.79-11.286-23.007-14c.044-1.451.022-2.873-.044-4.229-.019-1.242-.093-2.486-.222-3.731l21.365-1.293Z" clip-rule="evenodd" fill="#cf8b54" fill-rule="evenodd"/><path d="M394.675,146.922c6.34-1.844,7.515,4.116,11.679,7.226c4.164,3.111,10.679,5.677,12.523,5.878.375-.114.773-.175,1.184-.175c2.32,0,4.201,1.941,4.201,4.335s-1.881,4.335-4.201,4.335c-1.081,0-2.068-.422-2.812-1.115.005,7.597-3.171,21.969-16.234,21.969-13.064,0-14.473-11.805-16.049-22.27-.285.064-.581.097-.884.097-2.32,0-4.201-1.941-4.201-4.335s1.881-4.335,4.201-4.335c.163,0,10.449-3.608,10.593-11.61Z" clip-rule="evenodd" fill="#ffd1ab" fill-rule="evenodd"/><path d="M399.586,161.708c.824,3.137-1.797,9.729-2.334,11.458-.538,1.73,2.543,0,2.543,0" fill="none" stroke="#18233d" stroke-width="1.3" stroke-linecap="round"/><path d="M404.26,158.174c0,0,3.672-1.763,7.452.673" fill="none" stroke="#18233d" stroke-width="1.3" stroke-linecap="round"/><path d="M389.248,158.549c0,0,3.468-2.139,7.481-.114" fill="none" stroke="#18233d" stroke-width="1.3" stroke-linecap="round"/><ellipse rx="1.16792" ry="1.1728" transform="translate(407.522 161.717)" fill="#18233d"/><ellipse rx="1.16792" ry="1.1728" transform="translate(393.507 161.717)" fill="#18233d"/><path d="M396.232,177.505l7.126-.541c0,0-1.012,3.599-3.563,3.599s-3.563-3.058-3.563-3.058Z" clip-rule="evenodd" fill="#fff" fill-rule="evenodd"/><path d="M418.812,165.236l2.335-.782" fill="none" stroke="#18233d" stroke-width="1.3" stroke-linecap="round"/><path d="M384.553,163.672l-2.336-.782" fill="none" stroke="#18233d" stroke-width="1.3" stroke-linecap="round"/><g class="guy-raised-wave" transform="rotate(0 432 237)"><animateTransform attributeName="transform" type="rotate" values="-3 432 237;2 432 237;-3 432 237" dur="1.7s" repeatCount="indefinite"/><path d="M536.641,183.648c-3.963,9.808-8.718,23.986-19.069,19.804-10.35-4.182-8.66-23.891,2.854-44.626c11.514-20.736,30.898-54.282,30.898-54.282l-.174-.498c-2.633-7.524-3.764-15.4915-3.331-23.4512l-1.095-5.7232c-.176-.9197.378-1.822,1.278-2.0805.71-.2038,1.472.0437,1.926.6255l2.332,2.985c.638.8161,1.098,1.7566,1.35,2.7611l1.755,6.9845l6.557-23.1868c.303-1.0707,1.374-1.7323,2.467-1.5239c1.143.2181,1.904,1.3081,1.715,2.4567l-2.82,17.1079l8.946-18.1752c.529-1.0742,1.797-1.5584,2.907-1.1099c1.123.4538,1.698,1.7051,1.309,2.8526l-6.48,19.1322l9.835-12.7587c.702-.9117,1.995-1.115,2.944-.4629.973.6688,1.236,1.9863.589,2.9735-2.781,4.239-9.54,14.5967-8.929,14.1892.573-.3829,4.548-4.345,6.515-6.3166.63-.6318,1.628-.7065,2.344-.1742.787.5849.958,1.6936.383,2.4883L572.485,99.089l-6.419,10.577c0,0-25.462,64.174-29.425,73.982Z" clip-rule="evenodd" fill="#ffd1ab" fill-rule="evenodd"/><path d="M556.649,85.2525c0,0,8.384,9.2855,6.753,13.3243" fill="none" stroke="#fff" stroke-width="1.3" stroke-linecap="round"/><path d="M576.275,89.2691c0,0-4.813-6.2008-14.772-8.4967" fill="none" stroke="#fff" stroke-width="1.3" stroke-linecap="round"/><path d="" transform="translate(0 0.000004)" clip-rule="evenodd" fill="#6fbf44" fill-rule="evenodd"/><path d="M506.195,175.865c0,0,42.523-68.9,42.523-68.9l21.177,5.478c0,0-25.727273,81.789702-41.444102,90.956894C501.106898,219.348894,506.195,175.865,506.195,175.865Z" transform="translate(-0.111898 -0.111894)" clip-rule="evenodd" fill="#6fbf44" fill-rule="evenodd"/><path d="M523.798,206.662c-8.901043,8.270515-84.689284,40.472327-84.293,40.703l-7.41-44.999l26.267-3.695l47.833-22.227q28.637146,1.789758,17.603,30.218Z" clip-rule="evenodd" fill="#6fbf44" fill-rule="evenodd"/><path d="" clip-rule="evenodd" fill="#6fbf44" fill-rule="evenodd"/><path d="M506.195,175.865l2.6,7.8" fill="none" stroke="#fff" stroke-width="1.3" stroke-linecap="round"/></g><path d="M412.131,191.473c0,0,7.729.224,10.167,8.244s.786,34.082,8.783,40.842l-7.859,9.076c0,0-33.813-8.252-42.643-29.085s9.57-28.876,9.57-28.876l-1.337,6.621c0,0-6.974,6.077-3.961,15.095c3.013,9.017,23.137,24.346,33.156,26.39-1.936-8.841-3.4-24.542-2.427-33.118s-3.764-11.067-3.764-11.067l.315-4.122Z" clip-rule="evenodd" fill="url(#ecbaIJKiwmx152-fill)" fill-rule="evenodd"/><g mask="url(#ecbaIJKiwmx159)"><g><path d="M423.394,206.532l-7.986,2.077c.045-.682.103-1.333.172-1.947.649-5.717-.606-9.406-3.764-11.067l.315-4.122c5.153.149,8.542,2.897,10.167,8.244.496,1.631.823,4.007,1.096,6.815ZM380.4,199.27c2.103-3.173,5.456-5.774,10.06-7.805l-1.337,6.621c-1.855,1.601-3.21,3.335-4.063,5.202l-4.66-4.018Z" clip-rule="evenodd" fill="url(#ecbaIJKiwmx155-fill)" fill-rule="evenodd"/><path d="M411.251,192.596c0,0,7.808.882,9.428,10.426c1.619,9.544-2.79,24.322,4.037,36.788" fill="none" stroke="#fff" stroke-width="1.69"/><path d="M418.007,239.78l5.215,9.855c0,0-9.276-2.705-13.001-3.816-3.724-1.111-2.918-10.813-2.918-10.813s3.568,2.207,5.725,3.169s4.979,1.605,4.979,1.605Z" clip-rule="evenodd" fill="url(#ecbaIJKiwmx157-fill)" fill-rule="evenodd"/><path d="M389.843,194.625c0,0-7.919,2.717-9.264,13.112s13.557,30.537,36.945,37.021" fill="none" stroke="#fff" stroke-width="1.3" stroke-linecap="round"/></g><mask id="ecbaIJKiwmx159" mask-type="luminance" x="-150%" y="-150%" height="400%" width="400%"><path d="M412.131,191.473c0,0,7.729.224,10.167,8.244s.786,34.082,8.783,40.842l-7.859,9.076c0,0-33.813-8.252-42.643-29.085s9.57-28.876,9.57-28.876l-1.337,6.621c0,0-6.974,6.077-3.961,15.095c3.013,9.017,23.137,24.346,33.156,26.39-1.936-8.841-3.4-24.542-2.427-33.118s-3.764-11.067-3.764-11.067l.315-4.122Z" transform="translate(0.000001 0)" clip-rule="evenodd" fill="#fff" fill-rule="evenodd"/></mask></g><ellipse rx="11.1288" ry="13.1577" transform="matrix(-0.309017 0.951057 0.951057 0.309017 434.71673 250.515069)" fill="#f5bb37"/><g mask="url(#ecbaIJKiwmx169)"><g><path d="M425.788,249.088l-4.14,5.846-1.628-1.203l4.14-5.847l1.628,1.204Z" fill="url(#ecbaIJKiwmx164-fill)"/><path d="M429.094,254.985l-2.987,4.572-1.669-1.142l2.987-4.573l1.669,1.143Z" fill="url(#ecbaIJKiwmx165-fill)"/><path d="M434.059,257.792l-1.837,4.733-1.856-.777l1.837-4.733l1.856.777Z" fill="url(#ecbaIJKiwmx166-fill)"/><path d="M439.732,257.543l-2.069,5.909-1.972-.335l2.069-5.908l1.972.334Z" fill="url(#ecbaIJKiwmx167-fill)"/><path d="M444.719,256.876l-1.088,3.845-1.961.319l1.089-3.845l1.96-.319Z" fill="url(#ecbaIJKiwmx168-fill)"/></g><mask id="ecbaIJKiwmx169" mask-type="luminance" x="-150%" y="-150%" height="400%" width="400%"><ellipse rx="11.1288" ry="13.1577" transform="matrix(-0.309017 0.951057 0.951057 0.309017 434.71673 250.515069)" fill="#fff"/></mask></g><ellipse rx="11.1288" ry="13.1577" transform="matrix(-0.309017 0.951057 0.951057 0.309017 435.60873 248.858069)" fill="url(#ecbaIJKiwmx171-fill)"/><ellipse rx="8.42177" ry="9.8432" transform="matrix(-0.309017 0.951057 0.951057 0.309017 435.608971 248.858294)" fill="none" stroke="#fff" stroke-width="0.845"/><path d="M430.38,249.62c-.297-.095-.525-.35-.594-.665-.07-.316.033-.626.269-.81l2.095-1.638c.089-.069.136-.183.126-.304l-.232-2.84c-.026-.319.12-.608.381-.752.261-.145.583-.116.839.075l2.286,1.702c.098.073.219.093.326.054l2.498-.909c.281-.102.599-.025.83.201.231.227.326.555.25.857l-.682,2.688c-.029.115-.002.242.074.339l1.776,2.278c.156.201.222.444.185.685-.057.374-.366.65-.739.645l-2.707-.04c-.113-.002-.221.059-.28.155l-1.4,2.317c-.068.113-.159.201-.269.262-.201.111-.445.119-.67.022-.224-.096-.395-.281-.482-.519l-.991-2.714c-.042-.116-.135-.206-.248-.242l-2.641-.847Z" fill="url(#ecbaIJKiwmx173-fill)"/><path d="M364.615,202.636c0,0-11.697,2.567-16.146,17.741s-17.851,46.937-12.723,65.541c2.128,7.721,11.31,10.969,22.694,8.971c16.045-2.817,31.03-16.224,47.655-41.885l-10.516-9.97-33.675,21.527l2.711-61.925Z" clip-rule="evenodd" fill="#6fbf44" fill-rule="evenodd"/><path d="M361.895,264.265l-9.1,9.1" fill="none" stroke="#fff" stroke-width="1.3" stroke-linecap="round"/><path d="M367.785,236.965c-1.948,11.941-5.89,27.3-5.89,27.3l33.8-21.131" fill="none" stroke="#fff" stroke-width="1.3" stroke-linecap="round"/><rect width="16.9" height="31.2" rx="1.3" ry="1.3" transform="translate(409.995 216.165)" fill="#fe8b6e"/><path d="M396.995,244.142c0,0,7.261-9.244,9.189-12.206c1.929-2.963,4.124-6.031,4.124-6.031v6.031c0,0,12.192-5.61,12.896-9.271c1.107,7.339,2.465,9.452-2.059,16.939-4.525,7.486-17.199,11.661-17.199,11.661l-6.951-7.123Z" clip-rule="evenodd" fill="#ffd1ab" fill-rule="evenodd"/><path d="M424.295,227.865c0,0-5.094,4.182-7.8,5.2" fill="none" stroke="#18233d" stroke-width="1.3" stroke-linecap="round"/><path d="M424.295,231.765c0,0-5.094,4.182-7.8,5.2" fill="none" stroke="#18233d" stroke-width="1.3" stroke-linecap="round"/><path d="M421.695,238.265c0,0-3.396,3.136-5.2,3.9" fill="none" stroke="#18233d" stroke-width="1.3" stroke-linecap="round"/></g><mask id="ecbaIJKiwmx182" mask-type="luminance" x="-150%" y="-150%" height="400%" width="400%"><path d="M83.4714,439.081c0,0,114.5666,76.258,256.6336,53.984c142.066-22.273,195.432-80.053,195.432-80.053l-36.278-157.67c0,0,79.869-57.612,90.879-119.258c11.01-61.6461,4.271-103.7288-29.513-103.7288s-82.13,112.7038-107.73,108.4098c-25.601-4.293-33.021-64.0573-62.011-47.8557-28.989,16.2017-18.683-72.7642-79.092-60.5541-60.41,12.2101-14.921,81.6068-73.305,60.5541-58.383-21.0526-105.22-5.9956-120.943,32.6837-15.722,38.678-72.4463,84.998-51.9595,153.435s33.7118,62.785,31.6684,104.837c-2.0434,42.053-13.7815,55.216-13.7815,55.216Z" clip-rule="evenodd" fill="#fff" fill-rule="evenodd"/></mask></g><path id="star-top" class="floating-star floating-star--small" d="M300.296,10.1724c4.371-.59749,7.371-1.46657,9-2.60726s3.471-3.66241,5.528-7.56514c-.519,3.97148.07,7.16786,1.765,9.58914s4.498,4.06746,8.407,4.93846c-4.437.4431-7.485,1.2447-9.141,2.4048-1.657,1.1601-3.453,3.7493-5.387,7.7676-.166-4.6305-.83-7.7743-1.99-9.4314-1.161-1.6572-3.888-3.3559-8.182-5.0962Z" clip-rule="evenodd" fill="#0acc94" fill-rule="evenodd"/><path id="star-left" class="floating-star floating-star--small" d="M61.096,327.372c4.3707-.597,7.3705-1.466,8.9996-2.607s3.4718-3.662,5.5281-7.565c-.5186,3.971.0699,7.168,1.7652,9.589s4.4978,4.068,8.4071,4.939c-4.4374.443-7.4845,1.244-9.1413,2.404-1.6568,1.161-3.4523,3.75-5.3863,7.768-.1667-4.63-.8302-7.774-1.9905-9.431-1.1604-1.658-3.8877-3.356-8.1819-5.097Z" clip-rule="evenodd" fill="#0acc94" fill-rule="evenodd"/><path id="star-upper-left" class="floating-star floating-star--large" d="M79.296,121.974c8.2813-1.132,13.9652-2.779,17.0519-4.94s6.5781-6.939,10.4741-14.334c-.982,7.525.133,13.581,3.345,18.169s8.522,7.707,15.929,9.357c-8.408.84-14.181,2.358-17.32,4.556-3.14,2.199-6.542,7.104-10.206,14.718-.3158-8.774-1.573-14.73-3.7716-17.87-2.1985-3.14-7.366-6.359-15.5024-9.656Z" clip-rule="evenodd" fill="#0acc94" fill-rule="evenodd"/><path id="star-right" class="floating-star floating-star--medium" d="M508.296,292.274c8.281-1.132,13.965-2.779,17.052-4.94s6.578-6.939,10.474-14.334c-.982,7.525.133,13.581,3.345,18.169s8.522,7.707,15.929,9.357c-8.408.84-14.181,2.358-17.32,4.557-3.14,2.198-6.542,7.103-10.206,14.717-.316-8.773-1.573-14.73-3.772-17.87-2.198-3.14-7.366-6.359-15.502-9.656Z" clip-rule="evenodd" fill="#026753" fill-rule="evenodd"/></svg>
